<?xml version="1.0" encoding="utf-8"?>
<!-- Generator: Adobe Illustrator 16.0.0, SVG Export Plug-In . SVG Version: 6.00 Build 0)  -->
<!DOCTYPE svg PUBLIC "-//W3C//DTD SVG 1.0//EN" "http://www.w3.org/TR/2001/REC-SVG-20010904/DTD/svg10.dtd">
<svg version="1.0" id="Layer_1" xmlns="http://www.w3.org/2000/svg" xmlns:xlink="http://www.w3.org/1999/xlink" x="0px" y="0px"
	 width="20px" height="17.119px" viewBox="0 0 20 17.119" enable-background="new 0 0 20 17.119" xml:space="preserve">
<path fill="#FDFEFF" d="M5,10.6C5,10.866,4.867,11,4.598,11H1.402C1.134,11,1,10.866,1,10.6V1.419C1,1.138,1.134,1,1.402,1h3.196
	C4.867,1,5,1.138,5,1.419V10.6z"/>
<path fill="#FDFEFF" d="M19,10.6C19,10.868,18.875,11,18.625,11h-3.002c-0.238,0-0.363-0.132-0.375-0.401V3.36
	c0-0.267-0.125-0.401-0.375-0.401h-0.131c-0.25,0-0.375,0.134-0.375,0.401v7.239c0,0.269-0.126,0.401-0.376,0.401h-3
	c-0.237,0-0.364-0.132-0.375-0.401V3.36c0-0.267-0.126-0.401-0.375-0.401h-0.13c-0.251,0-0.376,0.134-0.376,0.401v7.239
	C9.733,10.867,9.608,11,9.357,11H6.376C6.125,11,6,10.868,6,10.6V1.398C6,1.132,6.125,1,6.376,1h10.373
	c0.626,0,1.157,0.232,1.595,0.7C18.781,2.164,19,2.731,19,3.399V10.6z"/>
<g>
	<g>
		<path fill="#FDFEFF" d="M1,15.894l0.008-1.152l0.066,0.003c0.081,0.292,0.176,0.524,0.287,0.692
			c0.208,0.312,0.47,0.468,0.785,0.468c0.221,0,0.402-0.072,0.545-0.215c0.143-0.144,0.214-0.324,0.214-0.544
			c0-0.096-0.016-0.19-0.047-0.291c-0.032-0.099-0.074-0.182-0.127-0.253c-0.056-0.072-0.134-0.142-0.234-0.208
			c-0.1-0.068-0.253-0.153-0.459-0.254c-0.181-0.09-0.32-0.165-0.417-0.226c-0.096-0.063-0.175-0.125-0.233-0.188
			c-0.165-0.175-0.247-0.387-0.247-0.638c0-0.154,0.032-0.304,0.097-0.446c0.063-0.144,0.152-0.268,0.267-0.37
			C1.707,12.09,1.946,12,2.224,12c0.089,0,0.172,0.01,0.249,0.027c0.076,0.018,0.178,0.052,0.306,0.104
			c0.095,0.038,0.162,0.062,0.195,0.073c0.035,0.01,0.065,0.015,0.093,0.015c0.066,0,0.111-0.048,0.134-0.143h0.066l0.02,1.108
			H3.221c-0.051-0.178-0.096-0.312-0.133-0.406c-0.037-0.095-0.081-0.181-0.132-0.262c-0.093-0.145-0.196-0.252-0.31-0.321
			c-0.112-0.07-0.242-0.105-0.388-0.105c-0.214,0-0.383,0.071-0.507,0.211c-0.051,0.059-0.092,0.127-0.121,0.205
			c-0.03,0.078-0.044,0.155-0.044,0.233c0,0.312,0.204,0.562,0.615,0.751l0.403,0.191c0.311,0.142,0.536,0.301,0.673,0.473
			c0.157,0.194,0.234,0.419,0.234,0.677c0,0.17-0.035,0.333-0.106,0.488c-0.099,0.217-0.248,0.385-0.447,0.503
			C2.759,15.941,2.524,16,2.255,16c-0.246,0-0.482-0.048-0.71-0.143c-0.117-0.05-0.188-0.079-0.212-0.086
			c-0.022-0.008-0.049-0.012-0.077-0.012c-0.091,0-0.154,0.046-0.189,0.135H1z"/>
		<path fill="#FDFEFF" d="M5.208,12.184c-0.121,0-0.249,0.003-0.387,0.011c-0.294,0.015-0.513,0.051-0.658,0.109
			c-0.145,0.058-0.264,0.157-0.357,0.298c-0.086,0.131-0.151,0.306-0.198,0.53l-0.066-0.005l0.052-1.03h3.877l0.051,1.03
			l-0.065,0.005c-0.051-0.257-0.131-0.454-0.242-0.587c-0.11-0.133-0.27-0.228-0.479-0.285c-0.178-0.051-0.479-0.076-0.903-0.076
			v2.844c0,0.19,0.011,0.332,0.033,0.423c0.022,0.091,0.063,0.168,0.123,0.227c0.053,0.055,0.113,0.094,0.182,0.118
			c0.067,0.024,0.156,0.039,0.265,0.045v0.064H4.603v-0.064c0.111-0.006,0.2-0.021,0.268-0.045c0.067-0.024,0.128-0.063,0.182-0.118
			c0.06-0.058,0.101-0.135,0.123-0.225c0.021-0.092,0.033-0.233,0.033-0.425V12.184z"/>
		<path fill="#FDFEFF" d="M7.589,14.026c0-0.312,0.068-0.602,0.207-0.87c0.137-0.266,0.338-0.499,0.601-0.7
			c0.197-0.146,0.41-0.258,0.637-0.338C9.26,12.04,9.489,12,9.72,12c0.295,0,0.579,0.063,0.854,0.188
			c0.276,0.127,0.517,0.305,0.723,0.533c0.336,0.373,0.503,0.795,0.503,1.269c0,0.239-0.042,0.469-0.13,0.689
			c-0.089,0.222-0.215,0.425-0.383,0.606c-0.207,0.228-0.451,0.403-0.733,0.527C10.271,15.937,9.977,16,9.669,16
			c-0.304,0-0.595-0.06-0.871-0.182c-0.279-0.121-0.517-0.292-0.717-0.513c-0.158-0.173-0.28-0.37-0.365-0.591
			C7.632,14.494,7.589,14.265,7.589,14.026z M8.282,14.068c0,0.54,0.152,0.995,0.453,1.365c0.136,0.166,0.278,0.287,0.432,0.361
			c0.152,0.075,0.326,0.113,0.525,0.113c0.201,0,0.378-0.036,0.53-0.111c0.151-0.075,0.296-0.195,0.434-0.363
			c0.301-0.372,0.453-0.831,0.453-1.375c0-0.3-0.041-0.583-0.125-0.85c-0.083-0.268-0.2-0.493-0.351-0.681
			c-0.122-0.151-0.258-0.263-0.409-0.332c-0.149-0.07-0.327-0.105-0.531-0.105c-0.203,0-0.378,0.035-0.525,0.103
			c-0.149,0.07-0.285,0.18-0.412,0.334c-0.151,0.185-0.267,0.412-0.35,0.68C8.323,13.473,8.282,13.761,8.282,14.068z"/>
		<path fill="#FDFEFF" d="M13.208,14.042v0.986c0,0.19,0.01,0.332,0.033,0.423c0.022,0.091,0.062,0.168,0.122,0.227
			c0.051,0.052,0.112,0.091,0.18,0.117c0.068,0.024,0.157,0.04,0.268,0.046v0.064h-1.831v-0.064c0.111-0.006,0.2-0.022,0.268-0.046
			c0.068-0.026,0.128-0.065,0.18-0.117c0.061-0.058,0.103-0.135,0.123-0.225c0.02-0.092,0.03-0.233,0.03-0.425v-2.056
			c0-0.191-0.01-0.332-0.03-0.423c-0.021-0.092-0.062-0.167-0.123-0.227c-0.052-0.053-0.112-0.093-0.182-0.117
			c-0.068-0.024-0.157-0.039-0.266-0.044v-0.065h1.38c0.232,0,0.384,0,0.458,0.003c0.295,0.013,0.528,0.053,0.695,0.118
			c0.189,0.074,0.336,0.185,0.44,0.333c0.104,0.148,0.156,0.319,0.156,0.515c0,0.29-0.113,0.522-0.339,0.697
			c-0.068,0.052-0.144,0.096-0.228,0.128c-0.082,0.035-0.193,0.066-0.333,0.096c0.115,0.047,0.2,0.095,0.255,0.145
			c0.044,0.039,0.083,0.088,0.12,0.146c0.037,0.058,0.09,0.163,0.164,0.312c0.17,0.34,0.298,0.588,0.385,0.746
			c0.087,0.158,0.16,0.271,0.22,0.342c0.048,0.058,0.093,0.098,0.139,0.12c0.044,0.023,0.106,0.037,0.185,0.045v0.064h-0.952
			c-0.047-0.103-0.079-0.168-0.091-0.196l-0.2-0.443c-0.12-0.265-0.241-0.501-0.365-0.706c-0.122-0.203-0.233-0.341-0.335-0.416
			c-0.051-0.037-0.107-0.062-0.166-0.08c-0.06-0.015-0.133-0.023-0.219-0.023H13.208z M13.208,13.98h0.11
			c0.236,0,0.406-0.013,0.508-0.039c0.102-0.025,0.198-0.08,0.288-0.162c0.201-0.186,0.301-0.417,0.301-0.691
			c0-0.146-0.028-0.284-0.087-0.415c-0.058-0.128-0.139-0.235-0.242-0.318c-0.08-0.064-0.176-0.108-0.287-0.133
			c-0.11-0.026-0.268-0.038-0.472-0.038h-0.118V13.98z"/>
		<path fill="#FDFEFF" d="M18.624,12.097l0.049,0.921l-0.066,0.003c-0.024-0.158-0.065-0.286-0.124-0.388
			c-0.057-0.102-0.14-0.192-0.249-0.271c-0.09-0.063-0.196-0.11-0.319-0.138c-0.122-0.026-0.284-0.04-0.486-0.04h-0.657v1.674h0.173
			c0.172,0,0.304-0.012,0.393-0.035c0.086-0.023,0.159-0.062,0.213-0.12c0.055-0.053,0.095-0.117,0.119-0.192
			c0.026-0.072,0.048-0.181,0.065-0.324l0.065,0.003l-0.012,1.496h-0.065c-0.017-0.144-0.043-0.259-0.076-0.347
			c-0.034-0.087-0.08-0.161-0.139-0.223c-0.057-0.059-0.132-0.103-0.223-0.131c-0.091-0.029-0.208-0.042-0.351-0.042h-0.163v0.638
			c0,0.255,0.007,0.441,0.02,0.557c0.015,0.116,0.04,0.212,0.078,0.292c0.065,0.134,0.165,0.231,0.297,0.294
			c0.132,0.061,0.308,0.094,0.526,0.094c0.229,0,0.421-0.029,0.576-0.086c0.154-0.056,0.28-0.144,0.378-0.264
			c0.069-0.08,0.125-0.17,0.168-0.273c0.043-0.102,0.082-0.236,0.119-0.404L19,14.793l-0.037,1.111h-3.419v-0.064
			c0.109-0.006,0.198-0.021,0.265-0.045c0.068-0.024,0.13-0.063,0.182-0.118c0.06-0.058,0.1-0.136,0.122-0.227
			c0.021-0.092,0.033-0.233,0.033-0.423v-2.056c0-0.188-0.012-0.329-0.033-0.422c-0.022-0.092-0.062-0.168-0.122-0.228
			c-0.052-0.053-0.111-0.093-0.179-0.117c-0.068-0.024-0.157-0.039-0.268-0.044v-0.065H18.624z"/>
	</g>
</g>
</svg>
