<?xml version="1.0" encoding="utf-8"?>
<!-- Generator: Adobe Illustrator 16.0.0, SVG Export Plug-In . SVG Version: 6.00 Build 0)  -->
<!DOCTYPE svg PUBLIC "-//W3C//DTD SVG 1.1//EN" "http://www.w3.org/Graphics/SVG/1.1/DTD/svg11.dtd">
<svg version="1.1" id="Layer_1" xmlns="http://www.w3.org/2000/svg" xmlns:xlink="http://www.w3.org/1999/xlink" x="0px" y="0px"
	 width="19px" height="17.119px" viewBox="26.417 0 19 17.119" enable-background="new 26.417 0 19 17.119" xml:space="preserve">
<path fill="#B5B5B5" d="M31.167,10.601c0,0.267-0.133,0.399-0.401,0.399h-3.197c-0.269,0-0.401-0.134-0.401-0.399V1.419
	c0-0.281,0.133-0.419,0.4-0.419h3.197c0.27,0,0.4,0.138,0.4,0.419v9.182H31.167z"/>
<path fill="#B5B5B5" d="M45.167,10.601c0,0.269-0.125,0.399-0.375,0.399H41.79c-0.238,0-0.363-0.132-0.375-0.401V3.36
	c0-0.267-0.125-0.401-0.375-0.401h-0.131c-0.25,0-0.375,0.134-0.375,0.401v7.239c0,0.271-0.127,0.401-0.377,0.401h-3
	c-0.236,0-0.363-0.132-0.375-0.401V3.36c0-0.267-0.125-0.401-0.375-0.401h-0.131c-0.25,0-0.375,0.134-0.375,0.401v7.239
	C35.899,10.867,35.774,11,35.522,11h-2.98c-0.25,0-0.375-0.132-0.375-0.399V1.398C32.167,1.132,32.292,1,32.542,1h10.373
	c0.627,0,1.158,0.232,1.596,0.7c0.438,0.464,0.656,1.031,0.656,1.699V10.601z"/>
<g>
	<g>
		<path fill="#B5B5B5" d="M27.167,15.894l0.008-1.15l0.066,0.003c0.08,0.292,0.176,0.522,0.285,0.69
			c0.209,0.312,0.471,0.47,0.785,0.47c0.223,0,0.402-0.072,0.545-0.216c0.145-0.145,0.215-0.323,0.215-0.545
			c0-0.096-0.016-0.188-0.047-0.291c-0.031-0.099-0.074-0.182-0.127-0.252c-0.057-0.071-0.135-0.143-0.234-0.209
			s-0.252-0.151-0.459-0.254c-0.182-0.09-0.32-0.164-0.416-0.226c-0.098-0.063-0.176-0.125-0.233-0.188
			c-0.164-0.175-0.246-0.387-0.246-0.638c0-0.153,0.03-0.304,0.096-0.446c0.063-0.144,0.152-0.268,0.269-0.369
			C27.874,12.09,28.112,12,28.39,12c0.09,0,0.172,0.01,0.25,0.026c0.075,0.019,0.178,0.053,0.305,0.104
			c0.097,0.038,0.162,0.062,0.195,0.073c0.034,0.01,0.065,0.015,0.094,0.015c0.065,0,0.111-0.048,0.134-0.143h0.065l0.021,1.107
			h-0.064c-0.053-0.179-0.098-0.312-0.135-0.406c-0.036-0.096-0.08-0.182-0.131-0.262c-0.095-0.146-0.196-0.252-0.312-0.322
			c-0.11-0.068-0.242-0.104-0.388-0.104c-0.215,0-0.383,0.071-0.508,0.211c-0.051,0.061-0.092,0.127-0.121,0.205
			c-0.028,0.078-0.043,0.155-0.043,0.232c0,0.312,0.203,0.562,0.615,0.752l0.402,0.189c0.311,0.144,0.535,0.301,0.672,0.473
			c0.158,0.195,0.234,0.421,0.234,0.679c0,0.17-0.035,0.333-0.105,0.487c-0.1,0.218-0.248,0.386-0.447,0.504
			C28.924,15.938,28.69,16,28.42,16c-0.246,0-0.481-0.048-0.709-0.144c-0.116-0.049-0.188-0.078-0.213-0.086
			c-0.021-0.008-0.049-0.013-0.076-0.013c-0.092,0-0.153,0.048-0.188,0.136H27.167L27.167,15.894z"/>
		<path fill="#B5B5B5" d="M31.374,12.185c-0.121,0-0.248,0.002-0.387,0.01c-0.295,0.017-0.514,0.053-0.658,0.109
			c-0.145,0.059-0.264,0.157-0.356,0.299c-0.086,0.131-0.149,0.307-0.197,0.529l-0.065-0.005l0.053-1.03h3.877l0.051,1.03
			l-0.064,0.005c-0.053-0.257-0.131-0.454-0.242-0.587c-0.11-0.133-0.271-0.228-0.479-0.285c-0.178-0.051-0.479-0.075-0.901-0.075
			v2.844c0,0.189,0.012,0.332,0.033,0.424c0.021,0.091,0.062,0.168,0.123,0.227c0.053,0.057,0.112,0.096,0.182,0.118
			c0.066,0.022,0.156,0.039,0.266,0.045v0.064h-1.837v-0.064c0.11-0.006,0.201-0.021,0.269-0.045
			c0.068-0.024,0.129-0.062,0.184-0.118c0.059-0.058,0.1-0.135,0.122-0.225c0.021-0.094,0.032-0.232,0.032-0.426L31.374,12.185
			L31.374,12.185z"/>
		<path fill="#B5B5B5" d="M33.754,14.026c0-0.312,0.068-0.604,0.207-0.87c0.138-0.267,0.338-0.499,0.603-0.7
			c0.197-0.146,0.41-0.258,0.638-0.338C35.426,12.04,35.655,12,35.886,12c0.295,0,0.579,0.063,0.854,0.188
			c0.274,0.127,0.516,0.305,0.723,0.533c0.336,0.371,0.502,0.795,0.502,1.269c0,0.239-0.041,0.469-0.129,0.688
			c-0.09,0.224-0.215,0.427-0.383,0.606c-0.207,0.229-0.451,0.402-0.732,0.525C36.437,15.937,36.144,16,35.834,16
			c-0.303,0-0.594-0.06-0.871-0.183c-0.278-0.12-0.518-0.291-0.717-0.512c-0.158-0.175-0.279-0.371-0.365-0.593
			C33.797,14.494,33.754,14.265,33.754,14.026z M34.448,14.067c0,0.541,0.152,0.996,0.453,1.365c0.137,0.166,0.277,0.286,0.432,0.36
			c0.152,0.075,0.326,0.113,0.525,0.113c0.201,0,0.377-0.036,0.529-0.111c0.15-0.073,0.296-0.194,0.436-0.362
			c0.301-0.371,0.452-0.83,0.452-1.375c0-0.301-0.041-0.582-0.125-0.851s-0.2-0.493-0.353-0.683
			c-0.12-0.149-0.258-0.262-0.408-0.332c-0.148-0.068-0.326-0.104-0.531-0.104c-0.201,0-0.377,0.035-0.523,0.104
			c-0.149,0.07-0.285,0.181-0.412,0.334c-0.151,0.186-0.268,0.412-0.352,0.681C34.489,13.474,34.448,13.761,34.448,14.067z"/>
		<path fill="#B5B5B5" d="M39.374,14.042v0.986c0,0.188,0.01,0.332,0.033,0.423c0.022,0.091,0.062,0.168,0.122,0.227
			c0.052,0.052,0.111,0.091,0.181,0.117c0.067,0.024,0.156,0.04,0.268,0.046v0.064h-1.83v-0.064
			c0.109-0.006,0.199-0.021,0.268-0.046c0.068-0.026,0.129-0.065,0.181-0.117c0.062-0.058,0.104-0.135,0.123-0.225
			c0.02-0.093,0.03-0.233,0.03-0.425v-2.057c0-0.19-0.012-0.332-0.03-0.424c-0.021-0.092-0.062-0.167-0.123-0.227
			c-0.052-0.055-0.111-0.094-0.183-0.117c-0.067-0.023-0.156-0.039-0.266-0.044v-0.063h1.379c0.232,0,0.385,0,0.459,0.002
			c0.295,0.014,0.527,0.053,0.695,0.117c0.188,0.074,0.336,0.186,0.439,0.333c0.103,0.148,0.155,0.319,0.155,0.517
			c0,0.289-0.112,0.521-0.34,0.697c-0.067,0.051-0.144,0.096-0.228,0.127c-0.082,0.034-0.192,0.065-0.334,0.096
			c0.115,0.048,0.201,0.096,0.256,0.146c0.043,0.039,0.082,0.088,0.119,0.146c0.037,0.06,0.09,0.164,0.164,0.312
			c0.17,0.34,0.299,0.588,0.385,0.746c0.089,0.158,0.16,0.271,0.222,0.342c0.047,0.059,0.092,0.098,0.14,0.12
			c0.043,0.022,0.104,0.037,0.185,0.045v0.064h-0.952c-0.047-0.104-0.078-0.169-0.092-0.196L40.6,15.267
			c-0.119-0.265-0.24-0.5-0.365-0.705c-0.121-0.203-0.232-0.342-0.334-0.416c-0.051-0.037-0.107-0.062-0.166-0.08
			c-0.061-0.016-0.133-0.022-0.219-0.022L39.374,14.042L39.374,14.042z M39.374,13.979h0.11c0.236,0,0.406-0.014,0.509-0.039
			c0.102-0.024,0.196-0.08,0.286-0.162c0.201-0.187,0.302-0.416,0.302-0.69c0-0.146-0.027-0.284-0.086-0.415
			c-0.06-0.128-0.14-0.234-0.242-0.318c-0.08-0.062-0.176-0.106-0.287-0.133c-0.109-0.024-0.269-0.037-0.473-0.037h-0.117
			L39.374,13.979L39.374,13.979z"/>
		<path fill="#B5B5B5" d="M44.79,12.097l0.049,0.922l-0.064,0.002c-0.023-0.158-0.064-0.285-0.125-0.388
			c-0.057-0.102-0.141-0.192-0.248-0.271c-0.09-0.063-0.195-0.11-0.318-0.139c-0.123-0.025-0.285-0.039-0.485-0.039h-0.658v1.674
			h0.174c0.173,0,0.304-0.012,0.394-0.035c0.086-0.023,0.158-0.062,0.213-0.12c0.055-0.054,0.096-0.117,0.119-0.192
			c0.024-0.072,0.048-0.181,0.063-0.324l0.065,0.004l-0.012,1.496h-0.066c-0.018-0.145-0.043-0.26-0.076-0.348
			c-0.033-0.087-0.08-0.161-0.139-0.223c-0.057-0.059-0.133-0.104-0.223-0.131c-0.093-0.029-0.209-0.043-0.353-0.043h-0.162v0.639
			c0,0.255,0.006,0.441,0.021,0.557c0.016,0.116,0.039,0.213,0.078,0.293c0.063,0.133,0.164,0.23,0.297,0.293
			c0.131,0.062,0.309,0.094,0.524,0.094c0.229,0,0.422-0.027,0.576-0.086c0.153-0.056,0.28-0.144,0.379-0.264
			c0.067-0.08,0.125-0.17,0.168-0.273c0.043-0.102,0.082-0.234,0.119-0.402l0.065,0.002l-0.037,1.109h-3.418V15.84
			c0.107-0.006,0.197-0.021,0.265-0.045s0.131-0.063,0.183-0.118c0.061-0.058,0.1-0.136,0.122-0.227
			c0.021-0.092,0.033-0.233,0.033-0.424v-2.055c0-0.188-0.013-0.33-0.033-0.424c-0.022-0.092-0.062-0.168-0.122-0.229
			c-0.052-0.053-0.111-0.094-0.179-0.116s-0.158-0.039-0.269-0.044v-0.065h3.08V12.097L44.79,12.097z"/>
	</g>
</g>
</svg>
